<svg width="64" height="64" viewBox="0 0 64 64" fill="none" xmlns="http://www.w3.org/2000/svg">
<g clip-path="url(#clip0_4_473)">
<mask id="mask0_4_473" style="mask-type:luminance" maskUnits="userSpaceOnUse" x="0" y="0" width="64" height="64">
<path d="M64 0H0V64H64V0Z" fill="white"/>
</mask>
<g mask="url(#mask0_4_473)">
<path fill-rule="evenodd" clip-rule="evenodd" d="M29.5 20C29.5 20 28.5 12 32.0929 13.2284C35.6858 14.4567 33 21 33 21L29.5 20Z" fill="#CED0D6"/>
<path fill-rule="evenodd" clip-rule="evenodd" d="M15 19.5C15 19.5 15.5203 11.7216 11.9933 13.1754C8.46625 14.6292 11.5 20 11.5 20L15 19.5Z" fill="#CED0D6"/>
<path fill-rule="evenodd" clip-rule="evenodd" d="M64 45.3632C58.0723 36.9795 51.8437 30.936 45.6221 26.7429C45.4808 26.9019 45.3053 27.1864 45.3053 27.6083V27.7016C45.3139 28.4832 45.3221 30.3093 44.0323 31.6091C43.1387 32.5093 41.8152 32.968 40.0955 32.968C37.7685 32.968 36.2512 32.2035 35.4755 30.6323C34.9952 29.6723 34.8771 28.5341 34.8432 27.4299H31.9939C31.9603 28.5341 31.8421 29.6723 31.3616 30.6323C30.5776 32.2035 29.0685 32.968 26.7419 32.968C25.0221 32.968 23.6985 32.5093 22.805 31.6091C21.5318 30.3176 21.5319 28.5067 21.5319 27.7168V27.7016V27.6083C21.5319 26.9749 21.1216 26.6513 21.0524 26.5967L21.0429 26.589L21.0093 26.555H20.2C19.8544 26.555 19.5677 26.2662 19.5677 25.9179C19.5677 25.5697 19.8544 25.2809 20.2 25.2809H43.3309C28.0443 16.0672 13.0293 17.6829 2.86758 22.838C-4.21093 30.972 2.22409 50.9944 17.6681 56C22.759 36.1997 29.8611 38.7133 49.6597 45.7205C52.3843 46.6848 55.3493 47.7341 58.5827 48.8221L64 45.3632ZM54.6192 46.2091L58.6667 48L62.4621 44.9389L59.2765 41.3832L54.6192 46.2091Z" fill="#CED0D6"/>
</g>
</g>
<defs>
<clipPath id="clip0_4_473">
<rect width="64" height="64" fill="white"/>
</clipPath>
</defs>
</svg>
